/* XPM */
static char *weechat[] = {
/* columns rows colors chars-per-pixel */
"64 64 256 2",
"   c #000001",
".  c #05050A",
"X  c #090708",
"o  c #191908",
"O  c #090917",
"+  c #160717",
"@  c #121013",
"#  c #1D230E",
"$  c #282708",
"%  c #363B08",
"&  c #373513",
"*  c #2F2910",
"=  c #171728",
"-  c #181735",
";  c #0A082D",
":  c #290629",
">  c #330333",
",  c #321335",
"<  c #25232A",
"1  c #282736",
"2  c #352735",
"3  c #22170F",
"4  c #401D3F",
"5  c #384409",
"6  c #395611",
"7  c #3A7D00",
"8  c #484716",
"9  c #545516",
"0  c #4C5110",
"q  c #557113",
"w  c #6D7315",
"e  c #4F5423",
"r  c #566F2F",
"t  c #71732D",
"y  c #0D0C54",
"u  c #2F1E47",
"i  c #2A2A48",
"p  c #36354B",
"a  c #292856",
"s  c #373756",
"d  c #3A2241",
"f  c #110F71",
"g  c #282766",
"h  c #383768",
"j  c #373779",
"k  c #292573",
"l  c #481948",
"z  c #4F0D4F",
"x  c #543654",
"c  c #4B2F4D",
"v  c #6C186C",
"b  c #710A71",
"n  c #55386C",
"m  c #673567",
"M  c #773C77",
"N  c #6F276F",
"B  c #5E1F66",
"V  c #3F4559",
"C  c #525358",
"Z  c #474B4D",
"A  c #577151",
"S  c #6A7551",
"D  c #55526A",
"F  c #57577C",
"G  c #4C496E",
"H  c #674869",
"J  c #764778",
"K  c #6A5573",
"L  c #586F6D",
"P  c #656978",
"I  c #786879",
"U  c #6F6C73",
"Y  c #967D37",
"T  c #5E9214",
"R  c #4E8A12",
"E  c #6A970B",
"W  c #78950A",
"Q  c #788418",
"!  c #7A9915",
"~  c #6D8A11",
"^  c #7AA80A",
"/  c #6DB700",
"(  c #7AB903",
")  c #71A611",
"_  c #548A2B",
"`  c #768724",
"'  c #749030",
"]  c #708649",
"[  c #858A09",
"{  c #898618",
"}  c #899513",
"|  c #999B17",
" . c #929312",
".. c #86A909",
"X. c #98A907",
"o. c #87B708",
"O. c #98B70C",
"+. c #88A915",
"@. c #98A615",
"#. c #89B313",
"$. c #9BB416",
"%. c #A4A90B",
"&. c #A7B708",
"*. c #B4B80A",
"=. c #A9A915",
"-. c #A6B713",
";. c #B6B914",
":. c #B3A91C",
">. c #928F28",
",. c #B09B29",
"<. c #92AA27",
"1. c #B2AA27",
"2. c #A09A16",
"3. c #C8B42B",
"4. c #C5BD14",
"5. c #84C301",
"6. c #97C606",
"7. c #A8C808",
"8. c #B8C50C",
"9. c #A8D303",
"0. c #B8D705",
"q. c #B8C411",
"w. c #BDE201",
"e. c #C3C80D",
"r. c #C6D707",
"t. c #D4DD0B",
"y. c #C6CA14",
"u. c #D0D113",
"i. c #C7E301",
"p. c #D7E705",
"a. c #DCF301",
"s. c #E6F601",
"d. c #E3E50D",
"f. c #16148C",
"g. c #313194",
"h. c #3835A1",
"j. c #3937B9",
"k. c #2D2AB2",
"l. c #413FB8",
"z. c #603A85",
"x. c #494886",
"c. c #565789",
"v. c #595899",
"b. c #494E93",
"n. c #715D88",
"m. c #676385",
"M. c #6A6A97",
"N. c #777798",
"B. c #776C90",
"V. c #4948A6",
"C. c #5859AB",
"Z. c #4746BA",
"A. c #5958B7",
"S. c #504FB3",
"D. c #605FA6",
"F. c #6B6AA8",
"G. c #7775A6",
"H. c #6A69B7",
"J. c #7777B5",
"K. c #706FAE",
"L. c #3835C3",
"P. c #423FC1",
"I. c #4C4AC3",
"U. c #4442C1",
"Y. c #514FC5",
"T. c #5957C8",
"R. c #615FD0",
"E. c #6462CB",
"W. c #6B6AC9",
"Q. c #7675C9",
"!. c #6A68D4",
"~. c #706FD0",
"^. c #7D7CD5",
"/. c #7675D4",
"(. c #881887",
"). c #901290",
"_. c #842884",
"`. c #982598",
"'. c #923692",
"]. c #A126A1",
"[. c #A01CA0",
"{. c #87578A",
"}. c #8E4D92",
"|. c #987998",
" X c #906D92",
".X c #A35AA3",
"XX c #8B77A9",
"oX c #8D74AC",
"OX c #A77AA8",
"+X c #B36BB3",
"@X c #AF73B2",
"#X c #A67DC3",
"$X c #C279C2",
"%X c #8C8996",
"&X c #9C889D",
"*X c #93939F",
"=X c #9897A5",
"-X c #8787B7",
";X c #9B9ABA",
":X c #9487B1",
">X c #A684AA",
",X c #A78AB3",
"<X c #B689B6",
"1X c #A896B8",
"2X c #B896B9",
"3X c #A798AB",
"4X c #B0ACB9",
"5X c #8786CA",
"6X c #9696C6",
"7X c #8887D8",
"8X c #9897DB",
"9X c #908FD6",
"0X c #AA9AD1",
"qX c #A9AAC8",
"wX c #B7B7C8",
"eX c #A7A6D6",
"rX c #B7B5D8",
"tX c #B6A9D4",
"yX c #9C9BE1",
"uX c #9493E1",
"iX c #908FE2",
"pX c #A4A3E3",
"aX c #ABAAE5",
"sX c #B0AFE5",
"dX c #B8B7E5",
"fX c #A09FE3",
"gX c #C889C8",
"hX c #CA93CA",
"jX c #C699C7",
"kX c #D29BD2",
"lX c #C9A8C9",
"zX c #C6B9CB",
"xX c #D6A8D6",
"cX c #D9B6DA",
"vX c #C9B5D5",
"bX c #E1BFE1",
"nX c #D7BAE0",
"mX c #BDC1EB",
"MX c #C9C7D9",
"NX c #D9C4D9",
"BX c #C8C1CC",
"VX c #CBCBED",
"CX c #C6C5E7",
"ZX c #D9D9EB",
"AX c #D8D8F3",
"SX c #C9C9F0",
"DX c #E5CBE5",
"FX c #E4C4E5",
"GX c #ECDCEC",
"HX c #E8D4E8",
"JX c #EBE2EC",
"KX c #E8E8F5",
"LX c #F1E5F1",
"PX c #F3F3FD",
"IX c #DFE0E8",
"UX c None",
/* pixels */
"UXUXUXUXUXUXUXUXUXUXUXUXUXUXUXUXUXUXUXUXUXUXUXUXUXUXUXUXUXUXUXUXUXUXUXUXUXUXUXUXUXUXUXUXUXUXUXUXUXUXUXUXUXUXUXUXUXUXUXUXUXUXUXUX",
"UXUXUXUXUXUXUXUXUXUXUXUXUXUXUXUXUXUXUXUXUXUXUXUXUXUXUXUXUXUXUXUXUXUXUXUXUXUXUXUXUXUXUXUXUXUXUXUXUXUXUXUXUXUXUXUXUXUXUXUXUXUXUXUX",
"UXUXUXUXUXUXUXUXUXUXUXUXUXUXUXUXUXUXUXUXUXUXUXUXUXUXUXUXUXUXUXUXUXUXUXUXUXUXUXUXUXUXUXUXUXUXUXUXUXUXUXUXUXUXUXUXUXUXUXUXUXUXUXUX",
"UXUXUXUXUXUXUXUXUXUXUXUXUXUXUXUXUXUXUXUXUXUXUXUXUXUXUXUXUXUXUXUXUXUXUXUXUXUXUXUXUXUXUXUXUXUXUXUXUXUXUXUXUXUXUXUXUXUXUXUXUXUXUXUX",
"UXUXUXUXUXUXUXUXUXUXUXUXUXUXUXUXUXUXUXLXLXJXLXJXJXLXLXLXUXUXUXUXUXUXUXUXUXUXUXUXUXLXLXLXLXJXJXJXLXLXUXUXUXUXUXUXUXUXUXUXUXUXUXUX",
"UXUXUXUXUXUXUXUXUXUXUXUXUXUXUXUXUXGXLXLXHXHXGXGXNXLX4XNXLX4XUXUXUXUXUXUXUXUXUXUXJXJXGXHXGXGXNXGXzXzXGXcXUXUXUXUXUXUXUXUXUXUXUXUX",
"UXUXUXUXUXUXUXUXUXUXUXUXUXUXUXHXHXGXHXNXNXNXDXNXI 4XNXI HXNXUXUXUXUXUXUXUXUXHXGXHXDXNXNXNXHX&X3XNXI NXHXUXUXUXUXUXUXUXUXUXUXUXUX",
"UXUXUXUXUXUXUXUXUXUXUXUXUXUXUXDXDXDXNXlX&XU I lX|.K HX4XcXcXZ UXUXUXUXUXUXDXDXFXDXlX3XI U 3X3XC NXlXzXHXU UXUXUXUXUXUXUXUXUXUXUX",
"UXUXUXUXUXUXUXUXUXUXUXUXUXUXFXFXbXFXcXI @     &XzXI cXbXxXzX< UXUXUXUXUXbXbXbXbXbX|.<     I lX|.lXbXlXbXZ UXUXUXUXUXUXUXUXUXUXUX",
"UXUXUXUXUXUXUXUXUXUXUXUXUXcXcXlXcXlXI     UXUX2X|.|.xXxXlX2X  UXUXUXUXbXcXlXcXxX&X@     UX|.,X XlXxXlXcXX UXUXUXUXUXUXUXUXUXUXUX",
"UXUXUXUXUXUXUXUXUXUXUXUXxXxXhX2XxX X    UXUXUXlX|.2XxX<XxX X  UXUXUXxXxXkX<XxX<XX     UXUX2X<X>XxX<XlX<X  UXUXUXUXUXUXUXUXUXUXUX",
"UXUXUXUXUXUXUXUXUXUXUXkXxXxXH hXOX2   UXUXUXUXkXgXxXxX|.jX<   UXUXUXkXxXK jX2Xx     UXUXUXjXjXkXxX|.xXx   UXUXUXUXUXUXUXUXUXUXUX",
"UXUXUXUXUXUXUXUXUXUXUXhXkX|.{.J OX    UXUXUXUXhXkX<XOX<X X  UXUXUXgXhXOX XH gX    UXUXUXUXhXkXhX@X>XOX    UXUXUXUXUXUXUXUXUXUXUX",
"UXUXUXUXUXUXUXUXUXUXgXhXLX%X<XH J UXUXUXUXUXgXhXgX{.gXjX4XwXBXKXjX<XgXc OXH  XUXUXUXUXUXUXgXgX,XkXhX2 2 Z 4XPXJXUXUXUXUXUXUXUXUX",
"UXUXUXUXUXUXUXUXUXUX$XNXPX&X=X{.x UXUXUXUXUXgX$XJ $XkXI IXPXPXJXOXlX>Xx H .XJ UXUXUXUXUXgX$X{.jXFXB.4XBXUXPXPXMXUXUXUXUXUXUXUXUX",
"UXUXUXUXUXUXKXZXKXzX<XlXLX>X4X}.c UXUXUX+X$XUXUX+XOXBX=XPXKXKXZX XzX%Xm x +XJ UXUXUXUX$X+XUX.XcXPXA KX4XU PXHXUXUXUXUXUXUXUXUXUX",
"UXUXUXUXUXUXKXMXIX,X,X2XKXOXvXM m J {..X.XUXUXJ UX< MXwXIXwXIXMXn.vX*XJ M .X.X}.}..X+XUXUXUXx BXKXC ZXC wXZX*XUXUXUXUXUXUXUXUXUX",
"UXUXUXUXUXUXAXwXZX>X<X,XAX:XtXm m m m UXUXUXUXUXUX%XwXZXBX;XCXrXI wX=XJ }.}..X}.J UXUXUXUXUXUXwXwX%X=XUXZXVXU UXUXUXUXUXUXUXUXUX",
"UXUXUXUXUXUXVXwXVX,X,X{.AX,X>Xm l     UXUXUXUXUXUXMXvXAX;XwXAXMXH 1X3Xm N '.M   UXUXUXUXUXUXUXVX=X=XUXD AXZX%X  UXUXUXUXUXUXUXUX",
"UXUXUXUXUXUXUXqXrX1X:Xn.VXqXI J l     UXUXUXUXUXUXVXVXCXwXCXAXCXD 1X3Xx 4 M }.    UXUXUXUXUXUXVXUX&X@ ;XAXCX1   UXUXUXUXUXUXUXUX",
"UXUXUXUXUXUXUXrXqXqX,Xm VXrXn {.z 4 , UXUXUXUXUXUXSXSXCXVXSXVXVXD *XqXd l N '.B l UXUXUXUXUXUXrX0XXX< CXSXqX    UXUXUXUXUXUXUXUX",
"UXUXUXUXUXUXUXrX;XmX,Xl rXmXB  Xz N _._.UXUXUXUX#XSXmXrX;XSXmXVXH B.SX1 l N '.`.'.].UXUXUXUXdX@XrX XP SXCXN.    UXUXUXUXUXUXUXUX",
"UXUXUXUXUXUXUXdX:XdX:X4 0XrXd oXz N _.`.z.UX`.`.0XdXqXN.N.SXrXeXK m.SXD , v N `.].].`.UX).#XmXoXdX1 ;XdXdX<     UXUXUXUXUXUXUXUX",
"UXUXUXUXUXUXUXdX-XsX1Xn XXsXc B.z v (.).[.].).}.rXdX-X1 -XmX6X6XM.K sXoX+ : v `.].].].`.[.0X0X:X:X1 sXdX6X    UXUXUXUXUXUXUXUXUX",
"UXUXUXUXUXUXUXrX;XrX6XK G.sXn.c.+ : v (.[.(.b #XsXeXP @ sXdXeX;XF D eXoXz > : : b ).[.).z.0X-X0Xx P sXsXF     UXUXUXUXUXUXUXUXUX",
"UXUXUXUXUXUXUX8X8X8XaXM.m.aXB.B B z b b ).b z 8XaXG.G x sXaXfX-Xm.D 6XsXl z b b (.).).(.'.aXM.%XO 6XaXeX@     UXUXUXUXUXUXUXUXUX",
"UXUXUXUXUXUXUXUXpXpXaXJ.c pXG.< H > > : .   D fXpXG.. -XeXpXpX-Xm.p -XaXs + > z z > +   G.8Xc.= p yXpX-X    UXUXUXUXUXUXUXUXUXUX",
"UXUXUXUXUXUXUXUX8XyXeX5X< pX5X  F         UX-XyX-XM.1 pX5XfXfXG.c.p J.aXM.      UXUXUX1 #XyX9X= N.yXyXV     UXUXUXUXUXUXUXUXUXUX",
"UXUXUXUXUXUXUXUX9X9X8XuX. 8X9X= F   UXUXUXUX9XyXF.V G.5XM.8XyXF.M.i F.yXK.X   UXUXUXUXUXuXyX-X1 5XyX9X      UXUXUXUXUXUXUXUXUXUX",
"UXUXUXUXUXUXUXUX5X5X9XuX@ Q.7Xs c.  UXUXUXUX9X5XK.= 9Xp F.5XuXJ.J.p F 9X5XX   UXUXUXUXUXiXiXG F 7XuXc.    UXUXUXUXUXUXUXUXUXUXUX",
"UXUXUXUXUXUXUXUX5X7X7X7X1 c.7XF G p UXUXUXQ.9XF.F K.K.X c.F.9X^.K.s G Q.8X=   UXUXUXUX^.7X5Xi K.7X7X=     UXUXUXUXUXUXUXUXUXUXUX",
"UXUXUXUXUXUXUXUXQ.7X7X7XG a 7Xv.i x.UXUXUX7X7XH.a ^.i = h c.7X7XH.F i Q.7Xh   UXUXUXUX7X7Xv.s ^.7XF.      UXUXUXUXUXUXUXUXUXUXUX",
"UXUXUXUXUXUXUXUXUX^.^.^.v.@ ^.H.i D.UXUXUX^.H.c.D.F.. X = c./.#X^.H.= H.#XD.  UXUXUXQ.#X~.h D.^.Q.1     UXUXUXUXUXUXUXUXUXUXUXUX",
"UXUXUXUXUXUXUXUXUXQ.^./.H.  W.H.i H.UXUXUX/.x.a /.i     UXb.!././.^.= v.!.~.  UXUXUX~./.D.a H.H.v.X     UXUXUXUXUXUXUXUXUXUXUXUX",
"UXUXUXUXUXUXUXUXUX~.~.~.~.. b.W.h A.g UXD.L UXv.A.@   UXUXx.C.~.~./.a h !./.-   UXUX~.~.h x.~.W.s     UXUXr UXUXUXUXUXUXUXUXUXUX",
"UXUXUXUXUXUXUXUXUXE.!.!.!.= a E.x.D A V ] r # A.a = UXUXUXUXC.!.!.~.b.- E.!.G   UXC.~.C.- C.!.A.O     UXUXr UX7 A UXUXUXUXUXUXUX",
"UXUXUXUXUXUXUXUXUXA.E.E.E.j @ !.b.6 _ ] _ A a g.= UXUXUXUXUXC.E.E.E.A.O C.E.A.  - R.E.j h E.!.h .   UXUXUXR UXR r UXUXUXUXUXUXUX",
"UXUXUXUXUXUXUXUXUXUXE.T.T.S.O !.C.7 R L _ 6 x.a O UXUXUXUXUXV.A.R.T.R.a j T.R.a b.R.S.- V.R.S.=     UXUXr R UX_ r UXUXUXUXUXUXUX",
"UXUXUXUXUXUXUXUXUXUXT.T.T.T.= V.S.R _ L e V g -   UXUXUXUXUXUXS.Y.T.T.V.a S.T.T.T.Y.j a Y.T.g     UXUXUXR UXq T q UXUXUXUXUXUXUX",
"UXUXUXUXUXUXUXUXUXUXI.I.Y.I.g a Y.L _ A R V u O   UXUXUXUXUXUXS.Y.I.Y.Y.j Z.Y.Y.Y.V.O g.Y.V.-     UXUXUXT UXe T q UXUXUXUXUXUXUX",
"UXUXUXUXUXUXUXUXUXUXZ.Z.I.I.h.O Y.] A _ _ a -     UXUXUXUXUXUXl.Z.I.I.I.Z.h.I.I.Z.a ; I.Z.a     UXUXUXUX) T q ) T e 6 UXUXUXUXUX",
"UXUXUXUXUXUXUXUXUXUXb.Z.P.U.l.g U.] r T t g .     UXUXUXUXUXUXl.l.l.P.P.U.l.U.Z.b.@ j U.g.; X   UXUXUX/ / / / / / / / T UXUXUXUX",
"UXUXUXUXUXUXUXUXUX^ ) c.V.j.j.j.b.) r ~ r ; .   o e ! ! UXUXUXUXj.j.L.P.j.Z.C.P ' T ' ] Z 6 0 o UXUX' ( / / / ( / E E 6 UXUXUXUX",
"UXUXUXUXUXUXUX#.( +.! U S h.k.j.c.( _ ' e .   & r ! ( UX` t UXUXk.j.L.L.b.P ' ] ) ( 5./ 5.5.E $ UX~ ! 5.o.( 5.5.^ q 8 * UXUXUXUX",
"UXUXUXUXUX>.<.#.^ #.W t A G g.g.] 6.` _ %   & w W o.o.UX#.UXUXUXf.k.k.c.' <.#.' ] ' +.o.o.o.q X w +.+.5.o.^ 5.^ W E ~ * UXUXUXUX",
"UXUXUXUX<.$.#.UXUX^ 9 r ` k f.g.' #.t w 5 5 w ` q #.+.% o.8 UXUXUXk.c.6.5.A Z V A ' } ..6.o.0   0 q ( 6.w w 6.w $ o 5 o UXUXUXUX",
"UXUXUX7.-.6.~ UXUX9 q e s ; ; a <.! ` ~ W 9 Q 0 UX$.>.9 ..& UXUXUXA <.9.A f ; f g Z ~ W 6.6.&   UXUX..O.~ w 6.9     UXUXUXUXUXUX",
"UXUX-.6.7.O.& UXUXUXUXUXf f f - <.! E 9.~ 9 & UXUX6.Y t } 8 UXUXUX6.<.<.k y . f f - Q Q 9.6.5   UXUX$.@.t +.6.9   UXUXUXUXUXUXUX",
"UXUX7.1.9...  UXUXUXUXUXf f.f.$ 7.Q } 6.9 8 o UXUX7.W |  .8 UXUXO.9.<.` y O ; f.y $ O.{ 9.&.%   UXUX7...>.-.9.q UXUXUXUXUXUXUXUX",
"UXUX0.-.w.W   UXUXUXUXUXUXUXUXo { >.| 7.w $ UXUXUXq...7.{ 8 UXUX0.0.0.w     . ; X w 0.Q @.&.%   UXUX0.>.X.0.9.0 UXUXUXUXUXUXUXUX",
"UX0.0.O.r.X.. UXUXUXUXUXUXUXUX9 X.@.%.*.9   UXUXUXi.X.0.Y % UXUX0.8.i.[ X   X   8 8.i.@.@.r.0 UXUXUX0.>.2.i.%.* UXUXUXUXUXUXUXUX",
"UXi.i.>.&.8.8 UXUXUXUXy.i.UXUX| q.8.i.&.%   UXUXUXi.O.r.X.w UXUXr.0.q.| *   UXw 1.i.r.=.7.r.9 UXUXUXr.%.>.8.} + UXUXUXUXUXUXUXUX",
"UXr.p.>.=.&.r.2.| y.t.e.1.UXUX:.u.r.a.[ . UXUXUXUXp.%.*.%.~ UXUXt.p.=.q.4.X.e.r.q.| q.>.e.e.w o UX*.u.*.| &.%.UXUXUXUXUXUXUXUXUX",
"UXUXp.,.=.| *.p.s.t.y.u.;.UXUX3.e.t.t.9   UXUXUXUXp.;.y.*.{ UXUX;.p.a.=.=.4.t. .UXUX:. .e.r.{ * UXe.e.,.%.X.,.UXUXUXUXUXUXUXUXUX",
"UXUXp.p.s.s.s.s.a.t.*.8 UXUXUX1.y.d.%.$   UXUXUXUX3.u.u.e.w UXUX;.t.p.u.s.p.=.& UXUXY 2.=.2.3 UXUXu.e.%.y. .:.UXUXUXUXUXUXUXUXUX",
"UXUXUX;.e.e.e.*.[ * . UXUXUXUXUXUXw $ UXUXUXUXUXUX3.d.u.2.* UXUXUXUXr.r.&.Y 3 UXUXUXUX .UXUXUXUXUXt.,.%.4.e [ UXUXUXUXUXUXUXUXUX",
"UXUXUXUXUXUX.       UXUXUXUXUXUXUXUXUXUXUXUXUXUXUXUX4.:.9 UXUXUXUXUXUXUXUX  UXUXUXUXUXUXUXUXUXUXUXUXUXUXUXUXUXUXUXUXUXUXUXUXUXUX",
"UXUXUXUXUXUXUXUXUXUXUXUXUXUXUXUXUXUXUXUXUXUXUXUXUXUXUXUXUXUXUXUXUXUXUXUXUXUXUXUXUXUXUXUXUXUXUXUXUXUXUXUXUXUXUXUXUXUXUXUXUXUXUXUX",
"UXUXUXUXUXUXUXUXUXUXUXUXUXUXUXUXUXUXUXUXUXUXUXUXUXUXUXUXUXUXUXUXUXUXUXUXUXUXUXUXUXUXUXUXUXUXUXUXUXUXUXUXUXUXUXUXUXUXUXUXUXUXUXUX",
"UXUXUXUXUXUXUXUXUXUXUXUXUXUXUXUXUXUXUXUXUXUXUXUXUXUXUXUXUXUXUXUXUXUXUXUXUXUXUXUXUXUXUXUXUXUXUXUXUXUXUXUXUXUXUXUXUXUXUXUXUXUXUXUX",
"UXUXUXUXUXUXUXUXUXUXUXUXUXUXUXUXUXUXUXUXUXUXUXUXUXUXUXUXUXUXUXUXUXUXUXUXUXUXUXUXUXUXUXUXUXUXUXUXUXUXUXUXUXUXUXUXUXUXUXUXUXUXUXUX",
"UXUXUXUXUXUXUXUXUXUXUXUXUXUXUXUXUXUXUXUXUXUXUXUXUXUXUXUXUXUXUXUXUXUXUXUXUXUXUXUXUXUXUXUXUXUXUXUXUXUXUXUXUXUXUXUXUXUXUXUXUXUXUXUX",
"UXUXUXUXUXUXUXUXUXUXUXUXUXUXUXUXUXUXUXUXUXUXUXUXUXUXUXUXUXUXUXUXUXUXUXUXUXUXUXUXUXUXUXUXUXUXUXUXUXUXUXUXUXUXUXUXUXUXUXUXUXUXUXUX",
"UXUXUXUXUXUXUXUXUXUXUXUXUXUXUXUXUXUXUXUXUXUXUXUXUXUXUXUXUXUXUXUXUXUXUXUXUXUXUXUXUXUXUXUXUXUXUXUXUXUXUXUXUXUXUXUXUXUXUXUXUXUXUXUX"
};
